<svg width="22" height="22" viewBox="0 0 22 22" fill="none" xmlns="http://www.w3.org/2000/svg">
<path d="M11.7233 5.99805C11.7233 5.58383 11.3876 5.24805 10.9733 5.24805C10.5591 5.24805 10.2233 5.58383 10.2233 5.99805V6.40093C8.71167 6.68808 7.91834 7.64558 7.6938 8.34803C7.52773 8.82112 7.44683 9.56787 7.82789 10.2575C8.23893 11.0013 9.06685 11.4697 10.3016 11.5571C11.6744 11.6544 12.4483 11.7804 12.8715 12.0026C13.0485 12.0955 13.1215 12.1851 13.1628 12.2732C13.2112 12.3766 13.2531 12.5595 13.2252 12.8937C13.1792 13.4461 12.9314 13.7272 12.6036 13.9031C12.2291 14.1042 11.7104 14.1802 11.1849 14.1633C10.6746 14.1469 10.0093 14.0185 9.48965 13.7564C8.96778 13.4933 8.7395 13.182 8.72166 12.8348C8.7004 12.4212 8.34782 12.1031 7.93416 12.1243C7.52049 12.1456 7.20238 12.4981 7.22363 12.9118C7.28077 14.0238 8.05605 14.7134 8.81425 15.0958C9.26245 15.3218 9.75615 15.4708 10.2233 15.5594V15.998C10.2233 16.4123 10.5591 16.748 10.9733 16.748C11.3876 16.748 11.7233 16.4123 11.7233 15.998V15.6515C12.2443 15.614 12.8089 15.4954 13.313 15.2247C14.0618 14.8228 14.6294 14.1063 14.7201 13.0182C14.7605 12.5321 14.7194 12.0603 14.5211 11.637C14.3157 11.1984 13.9783 10.8895 13.5688 10.6745C12.819 10.2808 11.7157 10.1536 10.4077 10.0609C9.49799 9.99644 9.22929 9.69217 9.14077 9.53197C9.0265 9.32518 9.03698 9.04542 9.11089 8.83991L9.11674 8.82363L9.12184 8.80709C9.17443 8.63654 9.61012 7.87559 10.9965 7.81946L11.0094 7.81896C11.0587 7.81713 11.1091 7.81619 11.1608 7.81619C12.3131 7.81621 12.9098 8.72189 12.9664 9.15773C13.0198 9.56849 13.3961 9.8582 13.8069 9.80482C14.2176 9.75144 14.5073 9.37517 14.4539 8.96442C14.3262 7.98173 13.3742 6.61717 11.7233 6.35918V5.99805Z" fill="#095690"/>
<path fill-rule="evenodd" clip-rule="evenodd" d="M11 0.25C5.06294 0.25 0.25 5.06294 0.25 11C0.25 16.937 5.06293 21.75 11 21.75C16.937 21.75 21.75 16.937 21.75 11C21.75 5.06293 16.937 0.25 11 0.25ZM1.75 11C1.75 5.89136 5.89136 1.75 11 1.75C16.1086 1.75 20.25 5.89137 20.25 11C20.25 16.1086 16.1086 20.25 11 20.25C5.89137 20.25 1.75 16.1086 1.75 11Z" fill="#095690"/>
</svg>
