<svg width="47" height="35" viewBox="0 0 47 35" fill="none" xmlns="http://www.w3.org/2000/svg">
<path fill-rule="evenodd" clip-rule="evenodd" d="M46.3125 20.375C45.6221 20.8928 44.6428 20.7529 44.125 20.0625C42.2151 17.4953 39.1997 15.9876 36 16C35.3718 15.9999 34.8048 15.6237 34.5605 15.0449C34.3967 14.6565 34.3967 14.2184 34.5605 13.8301C34.8048 13.2513 35.3718 12.8751 36 12.875C38.4359 12.8748 40.4657 11.0089 40.6705 8.58157C40.8753 6.15429 39.1868 3.97466 36.7854 3.56633C34.3839 3.158 32.0699 4.65707 31.4609 7.01562C31.2452 7.8516 30.3926 8.35441 29.5566 8.13867C28.7207 7.92294 28.2179 7.07035 28.4336 6.23437C29.268 3.00553 32.0601 0.662372 35.3847 0.400762C38.7094 0.139152 41.8335 2.01678 43.1627 5.07537C44.4919 8.13396 43.7331 11.6991 41.2734 13.9512C43.3981 14.8711 45.245 16.3309 46.6309 18.1855C46.8795 18.5179 46.9857 18.9356 46.9259 19.3463C46.8662 19.7571 46.6455 20.1272 46.3125 20.375ZM35.7891 32.4062C36.097 32.8906 36.1145 33.5048 35.8348 34.006C35.5551 34.5071 35.0232 34.8146 34.4493 34.8069C33.8754 34.7991 33.352 34.4773 33.0859 33.9688C31.0833 30.5778 27.4382 28.4972 23.5 28.4972C19.5618 28.4972 15.9167 30.5778 13.9141 33.9688C13.648 34.4773 13.1246 34.7991 12.5507 34.8069C11.9768 34.8146 11.4449 34.5071 11.1652 34.006C10.8855 33.5048 10.903 32.8906 11.2109 32.4062C12.7258 29.8035 15.0355 27.7552 17.8008 26.5625C14.6104 24.1198 13.3314 19.9156 14.6209 16.11C15.9105 12.3044 19.4818 9.74374 23.5 9.74374C27.5182 9.74374 31.0895 12.3044 32.3791 16.11C33.6686 19.9156 32.3896 24.1198 29.1992 26.5625C31.9645 27.7552 34.2742 29.8035 35.7891 32.4062ZM23.5 25.375C26.9518 25.375 29.75 22.5768 29.75 19.125C29.75 15.6732 26.9518 12.875 23.5 12.875C20.0482 12.875 17.25 15.6732 17.25 19.125C17.25 22.5768 20.0482 25.375 23.5 25.375ZM12.5625 14.4375C12.5625 13.5746 11.8629 12.875 11 12.875C8.56409 12.8748 6.53429 11.0089 6.3295 8.58157C6.12472 6.15429 7.81321 3.97466 10.2146 3.56633C12.6161 3.158 14.9301 4.65707 15.5391 7.01562C15.7548 7.8516 16.6074 8.35441 17.4434 8.13867C18.2793 7.92294 18.7821 7.07035 18.5664 6.23437C17.732 3.00553 14.9399 0.662372 11.6153 0.400762C8.29063 0.139152 5.16647 2.01678 3.83728 5.07537C2.50808 8.13396 3.26694 11.6991 5.72656 13.9512C3.60407 14.872 1.75921 16.3317 0.375 18.1855C-0.143306 18.8759 -0.00383258 19.8557 0.686523 20.374C1.37688 20.8923 2.35669 20.7529 2.875 20.0625C4.78487 17.4953 7.80033 15.9876 11 16C11.8629 16 12.5625 15.3004 12.5625 14.4375Z" fill="#F39A15"/>
</svg>
