<svg width="24" height="24" viewBox="0 0 24 24" fill="none" xmlns="http://www.w3.org/2000/svg">
<path d="M11 17C11 16.4477 11.4477 16 12 16H12.009C12.5613 16 13.009 16.4477 13.009 17C13.009 17.5523 12.5613 18 12.009 18H12C11.4477 18 11 17.5523 11 17Z" fill="currentColor"/>
<path fill-rule="evenodd" clip-rule="evenodd" d="M3.25 10.3405L2.51908 11.0413C2.2201 11.328 1.74534 11.3181 1.45866 11.0191C1.17197 10.7201 1.18194 10.2453 1.48092 9.95865L5.86414 5.75571C7.16347 4.5098 8.19322 3.52238 9.10742 2.85356C10.0495 2.16435 10.9512 1.75 12 1.75C13.0488 1.75 13.9505 2.16435 14.8926 2.85357C15.8068 3.52238 16.8365 4.50981 18.1359 5.75572L22.5191 9.95865C22.8181 10.2453 22.828 10.7201 22.5413 11.0191C22.2547 11.3181 21.7799 11.328 21.4809 11.0413L20.75 10.3405V13.5564C20.75 15.3942 20.75 16.8498 20.5969 17.989C20.4392 19.1614 20.1071 20.1104 19.3588 20.8588C18.6104 21.6071 17.6614 21.9392 16.489 22.0969C15.3498 22.25 13.8942 22.25 12.0565 22.25H11.9436C10.1058 22.25 8.65018 22.25 7.51098 22.0969C6.33856 21.9392 5.38961 21.6071 4.64124 20.8588C3.89288 20.1104 3.56076 19.1614 3.40314 17.989C3.24997 16.8498 3.24998 15.3942 3.25 13.5564L3.25 10.3405ZM6.86223 6.87683C8.21064 5.58388 9.16912 4.66699 9.99309 4.06418C10.7986 3.47489 11.392 3.25 12 3.25C12.608 3.25 13.2014 3.47489 14.0069 4.06418C14.8309 4.66699 15.7894 5.58388 17.1378 6.87683L19.25 8.90218V13.5C19.25 15.4068 19.2484 16.7615 19.1102 17.7892C18.975 18.7952 18.7213 19.3749 18.2981 19.7981C17.8749 20.2213 17.2952 20.475 16.2892 20.6102C15.2615 20.7484 13.9068 20.75 12 20.75C10.0932 20.75 8.73851 20.7484 7.71085 20.6102C6.70476 20.475 6.12511 20.2213 5.7019 19.7981C5.27869 19.3749 5.02502 18.7952 4.88976 17.7892C4.75159 16.7615 4.75 15.4068 4.75 13.5V8.90218L6.86223 6.87683Z" fill="currentColor"/>
</svg>
