<svg width="3" height="11" viewBox="0 0 3 11" fill="none" xmlns="http://www.w3.org/2000/svg">
<path d="M1.49103 4.75117C1.42158 4.75005 1.34127 4.75002 1.24219 4.75002C0.827974 4.75002 0.492188 4.41423 0.492188 4.00002C0.492188 3.5858 0.827974 3.25002 1.24219 3.25002L1.27663 3.25001C1.48175 3.24993 1.70354 3.24984 1.89076 3.27501C2.11008 3.3045 2.39027 3.38033 2.62607 3.61613C2.86187 3.85193 2.93771 4.13212 2.96719 4.35145C2.99236 4.53866 2.99228 4.76046 2.9922 4.96557L2.99219 10C2.99219 10.4142 2.6564 10.75 2.24219 10.75C1.82797 10.75 1.49219 10.4142 1.49219 10V5.00002C1.49219 4.90094 1.49215 4.82063 1.49103 4.75117Z" fill="#F9FAFB"/>
<path d="M1.99219 0C1.4399 0 0.992188 0.447715 0.992188 1C0.992188 1.55228 1.4399 2 1.99219 2H2.00117C2.55345 2 3.00117 1.55228 3.00117 1C3.00117 0.447715 2.55345 0 2.00117 0H1.99219Z" fill="#F9FAFB"/>
</svg>
