<svg width="23" height="17" viewBox="0 0 23 17" fill="none" xmlns="http://www.w3.org/2000/svg">
<path fill-rule="evenodd" clip-rule="evenodd" d="M21.4772 0.75C21.8914 0.75 22.2272 1.08579 22.2272 1.5C22.2272 1.91421 21.8914 2.25 21.4772 2.25H20.8907C21.4106 3.29856 22.0555 4.94031 22.2375 6.40767L22.2432 6.45366V6.5C22.2432 6.68295 22.2443 6.95078 22.2457 7.28267C22.2502 8.34752 22.2575 10.0718 22.2391 11.7681L22.239 11.7828L22.2382 11.7974C22.2291 11.9803 22.2129 12.2551 22.1086 12.5368C21.9955 12.8425 21.7972 13.1138 21.4927 13.3423C21.0155 13.7006 20.2739 13.9526 19.1658 14.1503C18.8737 15.3553 17.7879 16.25 16.4932 16.25C15.2344 16.25 14.1731 15.4043 13.8467 14.25H9.13965C8.8132 15.4043 7.75197 16.25 6.49316 16.25C5.2323 16.25 4.16965 15.4015 3.84508 14.2443C3.82822 14.2446 3.81108 14.2449 3.79365 14.2453L3.73337 14.2464C3.45856 14.2515 3.14057 14.2575 2.84752 14.2497C2.50208 14.2406 2.04454 14.2091 1.6477 14.0057C1.18644 13.7693 0.893929 13.3513 0.809528 12.7912C0.781059 12.6463 0.77116 12.457 0.764919 12.3068C0.756519 12.1046 0.751942 11.8509 0.750418 11.5691C0.747368 11.0042 0.75651 10.3058 0.774668 9.63957L0.774958 9.6289L0.775553 9.61824C0.819054 8.83825 1.05341 8.22011 1.45075 7.73375C1.83749 7.26035 2.33293 6.96872 2.79675 6.7566C3.06899 6.63209 3.39702 6.50897 3.69069 6.39875C3.85312 6.33779 4.00503 6.28077 4.13118 6.22965C4.5413 6.06344 4.85955 5.89799 5.10026 5.6819C5.42078 5.39415 5.72993 4.95255 6.08643 4.38271C6.1642 4.25841 6.24448 4.12751 6.3272 3.99265C6.60189 3.54478 6.90366 3.05276 7.22888 2.61363C8.08898 1.4523 9.02544 0.909012 10.1695 0.801486C10.4329 0.775218 10.7058 0.762587 10.9081 0.756355C11.0108 0.753195 11.0977 0.75161 11.1595 0.750813L11.2324 0.750107L11.2526 0.750015L11.2583 0.750002L21.4772 0.75ZM5.24951 13.3733C5.25983 13.4337 5.26284 13.4964 5.25768 13.5603C5.25589 13.5826 5.25313 13.6046 5.24946 13.6262C5.31275 14.2573 5.84539 14.75 6.49316 14.75C7.18355 14.75 7.74316 14.1904 7.74316 13.5C7.74316 12.8096 7.18355 12.25 6.49316 12.25C5.84556 12.25 5.31303 12.7424 5.24951 13.3733ZM3.84838 12.744C3.82071 12.7445 3.79319 12.745 3.76594 12.7455L3.71359 12.7465C3.43051 12.7518 3.14482 12.7571 2.88721 12.7503C2.73299 12.7462 2.61033 12.7369 2.51086 12.7205C2.41099 12.7041 2.35742 12.6839 2.33191 12.6708C2.32488 12.6672 2.32076 12.6646 2.31875 12.6631L2.31738 12.6606C2.31589 12.6576 2.31354 12.6525 2.31074 12.6447C2.30511 12.6291 2.29736 12.6017 2.29151 12.5587L2.28596 12.5181L2.27601 12.4782C2.27909 12.4905 2.27889 12.4882 2.27697 12.4652C2.27438 12.4341 2.26865 12.3653 2.26363 12.2445C2.25629 12.0679 2.25187 11.8341 2.2504 11.5609C2.24747 11.0189 2.2562 10.342 2.27381 9.69166C2.30355 9.18775 2.44464 8.88807 2.61238 8.68274C2.79184 8.46308 3.05257 8.28903 3.42062 8.12071C3.66054 8.01098 3.88022 7.92942 4.12472 7.83863C4.29706 7.77465 4.48178 7.70606 4.69457 7.61982C4.94464 7.51848 5.21053 7.4 5.47142 7.24969C5.47461 7.24978 5.47781 7.24985 5.48101 7.2499C5.48505 7.24997 5.48911 7.25 5.49317 7.25H20.7455L20.7457 7.30124C20.7502 8.36483 20.7574 10.0589 20.7394 11.7368C20.7306 11.9035 20.7186 11.9712 20.7018 12.0163C20.6935 12.0388 20.6775 12.0787 20.5923 12.1427C20.4102 12.2794 20.0023 12.4607 19.1046 12.6356C18.7422 11.5403 17.71 10.75 16.4932 10.75C15.2344 10.75 14.1731 11.5957 13.8467 12.75H9.13965C8.8132 11.5957 7.75197 10.75 6.49316 10.75C5.23653 10.75 4.1768 11.5928 3.84838 12.744ZM15.2452 13.4287C15.2821 12.7715 15.8267 12.25 16.4932 12.25C17.1696 12.25 17.7205 12.7872 17.7425 13.4582C17.741 13.4854 17.741 13.5129 17.7425 13.5406C17.7211 14.2122 17.1699 14.75 16.4932 14.75C15.8267 14.75 15.2821 14.2285 15.2452 13.5713C15.2474 13.5478 15.2485 13.524 15.2485 13.5C15.2485 13.476 15.2474 13.4522 15.2452 13.4287ZM19.2195 2.31286C19.2069 2.29225 19.1953 2.27128 19.1849 2.25H15.2432V5.75H20.5928C20.2603 4.35828 19.5863 2.90929 19.2195 2.31286ZM13.7432 5.75V2.25L11.2605 2.25L11.257 2.25001L11.2413 2.25008L11.1788 2.25069C11.1244 2.25139 11.0465 2.25281 10.9543 2.25564C10.7676 2.26139 10.5319 2.27272 10.3164 2.29429L10.3115 2.29475C9.65806 2.35578 9.08441 2.62856 8.43429 3.50637C8.15183 3.88775 7.89875 4.30016 7.63155 4.73557C7.54249 4.88069 7.45187 5.02836 7.35807 5.17829C7.24012 5.36682 7.11651 5.5599 6.98586 5.75H13.7432Z" fill="#FF87AF"/>
</svg>
