<svg width="18" height="18" viewBox="0 0 18 18" fill="none" xmlns="http://www.w3.org/2000/svg">
<path d="M15.2264 1.58849C14.4419 1.44974 13.1294 1.50599 12.4709 1.54499C11.6009 1.59599 11.2447 2.63773 11.8342 3.22648L12.7724 4.16548L10.7249 6.19722C10.4264 6.49347 10.4249 6.97573 10.7212 7.27498C11.0174 7.57348 11.4996 7.57497 11.7989 7.27872L13.8501 5.24324L14.7734 6.16573C15.3629 6.75523 16.4039 6.39896 16.4549 5.52896C16.4939 4.87046 16.5501 3.55798 16.4114 2.77348C16.3604 2.48623 16.2314 2.23124 16.0462 2.03099L16.0394 2.02425C15.8301 1.80075 15.5489 1.64549 15.2264 1.58849Z" fill="#0080FB"/>
<path d="M8.3265 3C8.7405 2.99925 9.075 2.6625 9.075 2.2485C9.07425 1.8345 8.73825 1.5 8.3235 1.5C6.9675 1.50225 5.86351 1.51876 4.97926 1.66201C4.07251 1.80901 3.31649 2.10001 2.70824 2.70751C2.05124 3.36451 1.76477 4.194 1.63052 5.19675C1.50002 6.16575 1.5 7.40023 1.5 8.94448V9.05552C1.5 10.599 1.50002 11.8342 1.63052 12.8032C1.76477 13.8052 2.05124 14.6347 2.70824 15.2917C3.36524 15.9487 4.19475 16.2352 5.19675 16.3695C6.16575 16.5 7.40098 16.5 8.94448 16.5H9.05552C10.5998 16.5 11.8342 16.5 12.8032 16.3695C13.806 16.2352 14.6355 15.9487 15.2925 15.2917C15.9 14.6842 16.191 13.9275 16.338 13.0208C16.4812 12.1365 16.4977 11.0325 16.5 9.67647C16.5007 9.26171 16.1655 8.92575 15.7515 8.925C15.3375 8.92425 15 9.25954 15 9.67354C14.9977 11.0543 14.9783 12.036 14.8575 12.7815C14.7398 13.5052 14.5395 13.923 14.2313 14.2313C13.8998 14.5627 13.4392 14.7705 12.6037 14.883C11.7465 14.9985 10.6117 15 9 15C7.38825 15 6.25425 14.9985 5.397 14.883C4.56075 14.7705 4.10025 14.5627 3.76875 14.2313C3.43725 13.8998 3.2295 13.4393 3.117 12.603C3.0015 11.7458 3 10.6125 3 9C3 7.3875 3.0015 6.25351 3.117 5.39626C3.2295 4.56076 3.43725 4.10025 3.76875 3.76875C4.077 3.4605 4.49476 3.26024 5.21851 3.14249C5.96401 3.02174 6.94575 3.00225 8.3265 3Z" fill="#0080FB"/>
</svg>
