<svg width="35" height="44" viewBox="0 0 35 44" fill="none" xmlns="http://www.w3.org/2000/svg">
<path fill-rule="evenodd" clip-rule="evenodd" d="M26.875 42.3125C26.875 43.1754 26.1754 43.875 25.3125 43.875H9.6875C8.82455 43.875 8.125 43.1754 8.125 42.3125C8.125 41.4496 8.82455 40.75 9.6875 40.75H25.3125C26.1754 40.75 26.875 41.4496 26.875 42.3125ZM34.6875 17.3125C34.7011 22.5909 32.2763 27.5798 28.1172 30.8301C27.3395 31.4262 26.881 32.3483 26.875 33.3281V34.5C26.875 36.2259 25.4759 37.625 23.75 37.625H11.25C9.52411 37.625 8.125 36.2259 8.125 34.5V33.3281C8.12435 32.3599 7.67495 31.4467 6.9082 30.8555C2.75999 27.6248 0.327787 22.666 0.3125 17.4082C0.261718 8.09961 7.78516 0.347656 17.0859 0.125C21.7157 0.0134332 26.1945 1.77488 29.5079 5.01033C32.8213 8.24579 34.6888 12.6814 34.6875 17.3125ZM31.5625 17.3125C31.5636 13.5233 30.0355 9.89392 27.3243 7.2467C24.6131 4.59948 20.9483 3.15843 17.1602 3.25C9.54297 3.42969 3.39648 9.77148 3.4375 17.3887C3.45196 21.6888 5.44259 25.7435 8.83594 28.3848C10.3615 29.5708 11.2528 31.3957 11.25 33.3281V34.5H23.75V33.3281C23.7544 31.3903 24.6532 29.5631 26.1855 28.377C29.5897 25.7166 31.5743 21.6329 31.5625 17.3125ZM28.416 15.4883C27.5862 10.8532 23.9575 7.2253 19.3223 6.39648C18.4712 6.25302 17.6649 6.82665 17.5215 7.67773C17.378 8.52881 17.9517 9.33505 18.8027 9.47851C22.0391 10.0234 24.7852 12.7695 25.334 16.0117C25.4616 16.7631 26.1128 17.3128 26.875 17.3125C26.9633 17.312 27.0514 17.3048 27.1387 17.291C27.9891 17.1458 28.561 16.3388 28.416 15.4883Z" fill="#F39A15"/>
</svg>
