<svg width="16" height="16" viewBox="0 0 16 16" fill="none" xmlns="http://www.w3.org/2000/svg">
<path d="M7.33301 11.3333C7.33301 10.9651 7.63148 10.6666 7.99967 10.6666H8.00566C8.37385 10.6666 8.67233 10.9651 8.67233 11.3333C8.67233 11.7015 8.37385 12 8.00566 12H7.99967C7.63148 12 7.33301 11.7015 7.33301 11.3333Z" fill="white"/>
<path fill-rule="evenodd" clip-rule="evenodd" d="M2.16634 6.89362L1.67906 7.36086C1.47974 7.55198 1.16323 7.54533 0.972111 7.34601C0.780991 7.14669 0.787637 6.83018 0.986955 6.63906L3.9091 3.8371C4.77532 3.00649 5.46182 2.34821 6.07129 1.90234C6.69933 1.44286 7.30045 1.16663 7.99968 1.16663C8.6989 1.16663 9.30002 1.44286 9.92807 1.90234C10.5375 2.34822 11.224 3.0065 12.0903 3.8371L15.0124 6.63906C15.2117 6.83018 15.2184 7.14669 15.0272 7.34601C14.8361 7.54533 14.5196 7.55198 14.3203 7.36086L13.833 6.89362V9.03757C13.833 10.2627 13.833 11.2332 13.7309 11.9926C13.6258 12.7743 13.4044 13.4069 12.9055 13.9058C12.4066 14.4047 11.774 14.6261 10.9924 14.7312C10.2329 14.8333 9.26247 14.8333 8.03731 14.8333H7.96207C6.73691 14.8333 5.76646 14.8333 5.00699 14.7312C4.22538 14.6261 3.59275 14.4047 3.09384 13.9058C2.59493 13.4069 2.37352 12.7743 2.26843 11.9926C2.16632 11.2332 2.16633 10.2627 2.16634 9.03757L2.16634 6.89362ZM4.5745 4.58451C5.47343 3.72255 6.11242 3.11129 6.66174 2.70941C7.19872 2.31655 7.59433 2.16663 7.99968 2.16663C8.40502 2.16663 8.80063 2.31655 9.33762 2.70941C9.88693 3.11129 10.5259 3.72255 11.4249 4.58451L12.833 5.93475V8.99996C12.833 10.2712 12.8319 11.1743 12.7398 11.8594C12.6497 12.5301 12.4805 12.9166 12.1984 13.1987C11.9163 13.4808 11.5298 13.6499 10.8591 13.7401C10.174 13.8322 9.27089 13.8333 7.99968 13.8333C6.72846 13.8333 5.82535 13.8322 5.14024 13.7401C4.46951 13.6499 4.08308 13.4808 3.80094 13.1987C3.5188 12.9166 3.34969 12.5301 3.25951 11.8594C3.1674 11.1743 3.16634 10.2712 3.16634 8.99996V5.93475L4.5745 4.58451Z" fill="white"/>
</svg>
