<svg width="20" height="20" viewBox="0 0 20 20" fill="none" xmlns="http://www.w3.org/2000/svg">
<path fill-rule="evenodd" clip-rule="evenodd" d="M10.0006 1.04167C6.1942 1.04167 3.10493 4.11774 3.1049 7.91662C3.10482 8.80024 3.04555 9.46716 2.6392 10.0666C2.5827 10.1487 2.50773 10.2516 2.42581 10.364C2.28354 10.5593 2.1203 10.7833 1.99648 10.9773C1.77795 11.3197 1.56444 11.7326 1.49105 12.2138C1.25159 13.7835 2.35546 14.7999 3.45481 15.2553C4.27324 15.5943 5.15757 15.8617 6.07996 16.0574C6.55835 17.7412 8.14134 18.9583 9.99983 18.9583C11.8582 18.9583 13.4411 17.7413 13.9196 16.0578C14.8426 15.862 15.7275 15.5945 16.5465 15.2553C17.6458 14.7999 18.7497 13.7835 18.5102 12.2138C18.4368 11.7326 18.2233 11.3197 18.0048 10.9773C17.881 10.7833 17.7177 10.5593 17.5755 10.364C17.4936 10.2516 17.4186 10.1488 17.3621 10.0666C16.9557 9.4672 16.8964 8.80035 16.8964 7.91667C16.8964 4.11776 13.8071 1.04167 10.0006 1.04167ZM4.3549 7.91667C4.3549 4.81202 6.88063 2.29167 10.0006 2.29167C13.1206 2.29167 15.6464 4.81207 15.6464 7.91673C15.6464 8.81875 15.6909 9.83057 16.3289 10.7702L16.3309 10.7731C16.4358 10.9257 16.5278 11.0508 16.6146 11.1687C16.7302 11.3258 16.8365 11.4702 16.9511 11.6498C17.1288 11.9282 17.239 12.1695 17.2745 12.4023C17.3895 13.1559 16.9088 13.7522 16.0681 14.1005C12.5022 15.5776 7.49901 15.5776 3.93321 14.1005C3.09247 13.7522 2.61179 13.1559 2.72675 12.4023C2.76226 12.1695 2.87248 11.9282 3.05018 11.6498C3.1648 11.4702 3.27102 11.3258 3.38662 11.1688C3.47328 11.051 3.56568 10.9255 3.67039 10.7731L3.67238 10.7702C4.31034 9.83057 4.35483 8.8187 4.3549 7.91667ZM12.4697 16.3028C10.8459 16.5103 9.15353 16.5102 7.5298 16.3026C8.00605 17.1349 8.92775 17.7083 9.99983 17.7083C11.0718 17.7083 11.9934 17.135 12.4697 16.3028Z" fill="#095690"/>
</svg>
