<svg width="24" height="24" viewBox="0 0 24 24" fill="none" xmlns="http://www.w3.org/2000/svg">
<path d="M10.7476 20.7955C9.13899 20.7955 8.00786 20.7942 7.13841 20.7033C6.28449 20.6139 5.80057 20.4472 5.44274 20.1941C5.20128 20.0234 4.98891 19.8223 4.81111 19.5979C4.55555 19.2754 4.38611 18.8427 4.29387 18.0559C4.19894 17.2461 4.19737 16.1888 4.19737 14.6653L4.19734 11.7652C4.19732 11.4982 4.1975 10.8596 4.47811 10.3875C4.65105 10.0965 4.87246 9.85337 5.09991 9.72955C5.46642 9.53003 5.88662 9.41667 6.33328 9.41667C6.48042 9.41667 6.70441 9.42622 6.88201 9.43446C7.03693 9.44174 7.20551 9.44966 7.37365 9.45315C7.75374 9.46105 8.19728 9.44904 8.62543 9.33432C9.4594 9.11086 10.1108 8.45945 10.3343 7.62548C10.449 7.19733 10.461 6.75379 10.4531 6.3737C10.4496 6.2057 10.4417 6.03703 10.4344 5.88222C10.4338 5.86862 10.4331 5.85477 10.4325 5.84103C10.4248 5.67524 10.4166 5.50067 10.4166 5.3648C10.4166 4.89711 10.5409 4.45845 10.7582 4.08004C10.8849 3.85945 11.1057 3.65756 11.4104 3.48025C11.8726 3.21134 12.426 3.20885 12.7641 3.20732C13.1023 3.2058 13.4591 3.20463 13.7572 3.20463C15.5913 3.20463 16.2584 3.21858 16.7618 3.39593C17.6344 3.70339 18.3001 4.34503 18.6102 5.1304C18.6879 5.32704 18.7427 5.58546 18.7721 6.03341C18.8021 6.49008 18.8026 7.07303 18.8026 7.91329V10.0455C18.8026 10.5852 19.2386 11.0228 19.7763 11.0228C20.3141 11.0228 20.75 10.5852 20.75 10.0455V7.88006C20.75 7.08091 20.75 6.43335 20.7153 5.90477C20.6795 5.36014 20.6039 4.87447 20.4206 4.41031C19.8918 3.071 18.7834 2.03673 17.4068 1.55172C16.548 1.24914 15.5156 1.2495 13.9606 1.25004L13.5209 1.25007C10.6813 1.24971 8.99465 1.2495 7.61221 1.73658C5.39221 2.51875 3.61848 4.1815 2.77509 6.31755C2.49398 7.02952 2.36944 7.79422 2.30919 8.71107C2.25 9.61179 2.25 10.7244 2.25 12.1427V14.7262C2.24998 16.1743 2.24996 17.3469 2.35985 18.2843C2.47396 19.2577 2.71721 20.0956 3.28704 20.8146C3.58222 21.1871 3.93077 21.5159 4.32113 21.7919C5.0659 22.3186 5.92712 22.5417 6.93654 22.6473C7.91879 22.75 9.15159 22.75 10.6927 22.75H14.9079C15.4456 22.75 15.8816 22.3125 15.8816 21.7727C15.8816 21.233 15.4456 20.7955 14.9079 20.7955H10.7476Z" fill="#FF87AF"/>
<path fill-rule="evenodd" clip-rule="evenodd" d="M8.01565 12.25C7.7985 12.2499 7.57026 12.2499 7.3787 12.2744C7.15902 12.3025 6.87717 12.3742 6.63655 12.6034C6.39078 12.8374 6.30854 13.1203 6.27661 13.3465C6.24982 13.5363 6.24992 13.7605 6.25001 13.9647L6.25002 18C6.25002 18.4142 6.58581 18.75 7.00002 18.75C7.41424 18.75 7.75002 18.4142 7.75002 18V16.25H8.75002C9.85421 16.25 10.8125 15.3886 10.8125 14.25C10.8125 13.1114 9.85421 12.25 8.75002 12.25L8.01565 12.25ZM8.75002 14.75H7.75002V14C7.75002 13.9008 7.75006 13.8209 7.75123 13.7518C7.83325 13.7501 7.92879 13.75 8.05002 13.75H8.75002C9.09559 13.75 9.31252 14.0079 9.31252 14.25C9.31252 14.4921 9.09559 14.75 8.75002 14.75Z" fill="#FF87AF"/>
<path fill-rule="evenodd" clip-rule="evenodd" d="M13.1263 12.25L13.1038 12.25C12.96 12.25 12.8085 12.2499 12.6786 12.2612C12.5328 12.2737 12.3436 12.3047 12.1524 12.4098C11.7694 12.6204 11.602 12.9567 11.5397 13.248C11.4957 13.4537 11.4992 13.6818 11.5008 13.792C11.5011 13.8086 11.5013 13.8226 11.5013 13.8333V17.1667C11.5013 17.1774 11.5011 17.1914 11.5008 17.208C11.4992 17.3182 11.4957 17.5463 11.5397 17.752C11.602 18.0433 11.7694 18.3796 12.1524 18.5902C12.3436 18.6953 12.5328 18.7263 12.6786 18.7389C12.8085 18.7501 12.96 18.75 13.1038 18.75L13.1263 18.75C14.9553 18.75 16.5013 17.329 16.5013 15.5C16.5013 13.671 14.9553 12.25 13.1263 12.25ZM13.0008 13.7518L13.0008 13.7502C13.0378 13.75 13.0791 13.75 13.1263 13.75C14.1967 13.75 15.0013 14.5676 15.0013 15.5C15.0013 16.4324 14.1967 17.25 13.1263 17.25C13.0791 17.25 13.0378 17.25 13.0008 17.2498L13.0008 17.2482C13.001 17.2228 13.0013 17.1931 13.0013 17.1667V13.8333C13.0013 13.807 13.001 13.7773 13.0008 13.7518Z" fill="#FF87AF"/>
<path d="M19.6459 12.25L21 12.25C21.4142 12.25 21.75 12.5858 21.75 13C21.75 13.4142 21.4142 13.75 21 13.75H19.6875C19.2548 13.75 19.0022 13.7515 18.8227 13.7744C18.7766 13.7803 18.7448 13.7867 18.7238 13.7919C18.7202 13.8075 18.7162 13.8288 18.7122 13.8571C18.6893 14.0195 18.6875 14.2516 18.6875 14.6667V14.75H20.125C20.5392 14.75 20.875 15.0858 20.875 15.5C20.875 15.9142 20.5392 16.25 20.125 16.25H18.6875V18C18.6875 18.4142 18.3517 18.75 17.9375 18.75C17.5233 18.75 17.1875 18.4142 17.1875 18L17.1875 14.623C17.1874 14.2681 17.1874 13.9275 17.2269 13.6474C17.2717 13.3305 17.3795 12.9839 17.6766 12.701C17.9684 12.423 18.3172 12.3269 18.6321 12.2866C18.9186 12.2499 19.2694 12.25 19.6459 12.25Z" fill="#FF87AF"/>
</svg>
