<svg width="24" height="24" viewBox="0 0 24 24" fill="none" xmlns="http://www.w3.org/2000/svg">
<path d="M13.0522 1.25H10.9481C10.0496 1.24997 9.30034 1.24995 8.70558 1.32992C8.07779 1.41432 7.51099 1.59999 7.05552 2.05546C6.60005 2.51093 6.41438 3.07773 6.32997 3.70553C6.28616 4.03139 6.26636 4.70379 6.25742 5.39295C6.2537 5.67931 6.25184 5.82248 6.34014 5.91177C6.42843 6.00105 6.57337 6.00078 6.86324 6.00024C6.99807 5.99999 7.13558 6 7.2756 6H16.7245C16.8645 6 17.0021 5.99999 17.1369 6.00024C17.4268 6.00078 17.5717 6.00105 17.66 5.91177C17.7483 5.82249 17.7464 5.67931 17.7427 5.39297C17.7338 4.70381 17.714 4.03139 17.6702 3.70553C17.5857 3.07773 17.4001 2.51093 16.9446 2.05546C16.4891 1.59999 15.9223 1.41432 15.2945 1.32992C14.6998 1.24995 13.9506 1.24997 13.0522 1.25Z" fill="#FF87AF"/>
<path fill-rule="evenodd" clip-rule="evenodd" d="M16.6789 7.25H7.32116C6.46285 7.24999 5.77206 7.24999 5.21173 7.2968C4.6344 7.34502 4.13151 7.44666 3.66499 7.68655C3.10651 7.97373 2.62704 8.39059 2.27103 8.90267C1.97157 9.33342 1.81377 9.81453 1.70522 10.3696C1.60044 10.9054 1.5314 11.5704 1.44628 12.3903L1.43866 12.4638C1.33644 13.4482 1.25407 14.2415 1.25015 14.8832C1.24612 15.5437 1.32242 16.1279 1.59682 16.6652C1.9189 17.2958 2.41585 17.8229 3.0278 18.1899C3.54485 18.4999 4.12804 18.6289 4.8033 18.6901C5.20351 18.7264 5.6646 18.7406 6.19573 18.7462C6.13965 19.0022 6.09306 19.233 6.06013 19.4397C5.99885 19.8243 5.96909 20.2126 6.04614 20.6068C6.21759 21.484 6.7587 22.26 7.55462 22.6813C7.92064 22.8751 8.30673 22.9417 8.67884 22.9715C9.03472 23.0001 9.47033 23.0001 9.97308 23.0001L14.0269 23.0001C14.5296 23.0001 14.9653 23.0001 15.3211 22.9715C15.6932 22.9417 16.0793 22.8751 16.4453 22.6813C17.2413 22.26 17.7824 21.484 17.9538 20.6068C18.0309 20.2126 18.0011 19.8243 17.9398 19.4397C17.9069 19.233 17.8602 19.0022 17.8042 18.7462C18.3353 18.7406 18.7965 18.7264 19.1967 18.6901C19.872 18.6289 20.4552 18.4999 20.9722 18.1899C21.5841 17.8229 22.0811 17.2958 22.4032 16.6652C22.6776 16.1279 22.7539 15.5437 22.7499 14.8832C22.7459 14.2416 22.6636 13.4484 22.5614 12.4641L22.5537 12.3902C22.4686 11.5705 22.3996 10.9053 22.2948 10.3696C22.1862 9.81453 22.0284 9.33342 21.729 8.90267C21.373 8.39059 20.8935 7.97373 20.335 7.68655C19.8685 7.44666 19.3656 7.34502 18.7883 7.2968C18.2279 7.24999 17.5372 7.24999 16.6789 7.25ZM9.04161 17.0458C9.12282 17.0155 9.24419 17.0002 10.0113 17.0002H13.9887C14.7558 17.0002 14.8771 17.0155 14.9583 17.0458C15.1234 17.1075 15.2821 17.2339 15.396 17.424C15.4628 17.5356 15.5139 17.7038 15.6967 18.4971C15.8297 19.0743 15.9175 19.4578 15.9647 19.7543C16.0112 20.0461 16.0022 20.1655 15.991 20.2232C15.9269 20.5509 15.734 20.795 15.5096 20.9137C15.493 20.9225 15.4201 20.9572 15.1611 20.978C14.895 20.9993 14.5405 21.0001 13.9887 21.0001H10.0113C9.45941 21.0001 9.10499 20.9993 8.83881 20.978C8.57986 20.9572 8.50695 20.9225 8.49036 20.9137C8.26599 20.795 8.07305 20.5509 8.009 20.2232C7.99773 20.1655 7.98874 20.0461 8.03523 19.7543C8.08246 19.4578 8.17027 19.0743 8.30328 18.4971C8.48606 17.7038 8.53717 17.5356 8.60398 17.424C8.71789 17.2339 8.87656 17.1075 9.04161 17.0458ZM17.9955 10.9999C17.4457 10.9999 17 11.4477 17 11.9999C17 12.5522 17.4457 12.9999 17.9955 12.9999H18.0045C18.5543 12.9999 19 12.5522 19 11.9999C19 11.4477 18.5543 10.9999 18.0045 10.9999H17.9955Z" fill="#FF87AF"/>
</svg>
