<svg width="18" height="18" viewBox="0 0 18 18" fill="none" xmlns="http://www.w3.org/2000/svg">
<path fill-rule="evenodd" clip-rule="evenodd" d="M9.01595 5.45898C7.05994 5.45898 5.47428 7.04464 5.47428 9.00065C5.47428 10.9567 7.05994 12.5423 9.01595 12.5423C10.972 12.5423 12.5576 10.9567 12.5576 9.00065C12.5576 7.04464 10.972 5.45898 9.01595 5.45898ZM6.72428 9.00065C6.72428 7.735 7.7503 6.70898 9.01595 6.70898C10.2816 6.70898 11.3076 7.735 11.3076 9.00065C11.3076 10.2663 10.2816 11.2923 9.01595 11.2923C7.7503 11.2923 6.72428 10.2663 6.72428 9.00065Z" fill="#F9FAFB"/>
<path fill-rule="evenodd" clip-rule="evenodd" d="M9.54572 0.0488305H8.55786C8.29395 0.0487979 8.04594 0.0487672 7.83808 0.0725447C7.60647 0.0990398 7.3629 0.160315 7.13563 0.324445C6.90845 0.488502 6.77362 0.700402 6.67546 0.911824C6.58729 1.10172 6.50894 1.33732 6.42549 1.58828L6.41622 1.61616L6.14309 2.43188C6.06415 2.63086 5.92605 2.80045 5.7478 2.91774L5.49581 3.06313C5.28489 3.16807 5.0447 3.19797 4.81468 3.14801L3.81441 2.86627L3.78503 2.85793C3.51168 2.78032 3.25607 2.70775 3.03596 2.67281C2.79116 2.63394 2.52337 2.62898 2.24644 2.74161C1.96962 2.8542 1.78125 3.04462 1.63294 3.24319C1.4995 3.42185 1.36676 3.65229 1.2247 3.89889L0.783024 4.66541C0.649941 4.8963 0.525058 5.11296 0.441284 5.30643C0.348003 5.52185 0.279191 5.76505 0.308655 6.04553C0.338124 6.32603 0.455992 6.54962 0.592046 6.74093C0.714213 6.91271 0.881411 7.0986 1.05955 7.29666L1.07823 7.31743L1.07933 7.31865L1.92194 8.26069C2.02726 8.40339 2.13736 8.71354 2.13736 9.00703C2.13736 9.30083 2.02728 9.61086 1.92195 9.75356L1.07933 10.6956L1.07823 10.6968L1.05955 10.7176C0.881413 10.9157 0.714215 11.1016 0.592049 11.2733C0.455995 11.4646 0.338126 11.6882 0.308657 11.9687C0.279191 12.2492 0.348006 12.4924 0.441286 12.7078C0.525061 12.9013 0.649943 13.118 0.783024 13.3489L1.2247 14.1154C1.36675 14.362 1.49949 14.5924 1.63293 14.7711C1.78124 14.9696 1.96961 15.1601 2.24645 15.2726C2.52338 15.3853 2.79118 15.3803 3.03598 15.3414C3.25609 15.3065 3.51171 15.2339 3.78506 15.1563L3.81395 15.1481L4.81464 14.8662C5.04471 14.8162 5.28495 14.8462 5.49591 14.9511L5.74784 15.0965C5.92606 15.2138 6.06413 15.3834 6.14306 15.5824L6.41622 16.3982L6.42549 16.4261C6.50894 16.677 6.58729 16.9126 6.67546 17.1025C6.77362 17.3139 6.90845 17.5258 7.13562 17.6899C7.3629 17.854 7.60647 17.9153 7.83808 17.9418C8.04595 17.9656 8.29396 17.9655 8.55788 17.9655H9.5457C9.80962 17.9655 10.0576 17.9656 10.2655 17.9418C10.4971 17.9153 10.7407 17.854 10.968 17.6899C11.1951 17.5258 11.33 17.3139 11.4281 17.1025C11.5163 16.9126 11.5946 16.677 11.6781 16.4261L11.6874 16.3982L11.9605 15.5824C12.0395 15.3834 12.1775 15.2138 12.3557 15.0965L12.6077 14.9511C12.8186 14.8462 13.0589 14.8162 13.2889 14.8662L14.2896 15.1481L14.3185 15.1563C14.5919 15.2339 14.8475 15.3065 15.0676 15.3414C15.3124 15.3803 15.5802 15.3853 15.8571 15.2726C16.134 15.1601 16.3223 14.9696 16.4706 14.7711C16.6041 14.5924 16.7368 14.362 16.8789 14.1154L17.3205 13.3489C17.4536 13.118 17.5785 12.9013 17.6623 12.7078C17.7556 12.4924 17.8244 12.2492 17.7949 11.9687C17.7655 11.6882 17.6476 11.4646 17.5115 11.2733C17.3894 11.1016 17.2222 10.9157 17.0441 10.7176L17.0253 10.6968L16.1816 9.75356C16.0763 9.61086 15.9662 9.30083 15.9662 9.00703C15.9662 8.71354 16.0763 8.40339 16.1816 8.26069L17.0243 7.31865L17.0254 7.31743L17.044 7.29666C17.2222 7.0986 17.3894 6.91271 17.5115 6.74093C17.6476 6.54962 17.7655 6.32603 17.7949 6.04553C17.8244 5.76505 17.7556 5.52185 17.6623 5.30643C17.5785 5.11297 17.4537 4.89632 17.3206 4.66544L16.8789 3.89886C16.7368 3.65227 16.6041 3.42185 16.4706 3.24319C16.3223 3.04462 16.134 2.8542 15.8571 2.74161C15.5802 2.62898 15.3124 2.63394 15.0676 2.67281C14.8475 2.70775 14.5919 2.78033 14.3186 2.85793L14.2897 2.86613L13.2889 3.14801C13.0589 3.19797 12.8187 3.16807 12.6078 3.06313L12.3558 2.91773C12.1775 2.80045 12.0394 2.63086 11.9605 2.43188L11.687 1.61501L11.6781 1.58825C11.5946 1.3373 11.5163 1.10172 11.4281 0.911824C11.33 0.700402 11.1951 0.488502 10.968 0.324445C10.7407 0.160314 10.4971 0.0990398 10.2655 0.0725447C10.0576 0.0487672 9.80963 0.0487979 9.54572 0.0488305ZM7.86677 1.33841L7.86746 1.33782C7.86746 1.33782 7.87164 1.33568 7.8782 1.3335C7.89238 1.32881 7.92234 1.32106 7.98014 1.31445C8.10834 1.29978 8.28356 1.29883 8.5873 1.29883H9.51628C9.82002 1.29883 9.99524 1.29978 10.1234 1.31445C10.1812 1.32106 10.2112 1.32881 10.2254 1.3335C10.2319 1.33568 10.2361 1.33782 10.2361 1.33782L10.2368 1.33841C10.2368 1.33841 10.2396 1.34127 10.2438 1.34689C10.2529 1.35904 10.2698 1.38524 10.2944 1.43822C10.3489 1.55564 10.4053 1.7221 10.5013 2.01075L10.7842 2.85584L10.7891 2.86843C10.9642 3.32499 11.2806 3.71363 11.6923 3.97731L11.7045 3.98512L12.011 4.16194L12.0245 4.1689C12.5047 4.41563 13.0566 4.48447 13.5827 4.36315L13.5973 4.35979L14.6297 4.06898C14.9437 3.9799 15.1263 3.92914 15.2636 3.90734C15.3257 3.89748 15.359 3.89715 15.3748 3.89811C15.382 3.89855 15.3857 3.89935 15.3857 3.89935L15.3867 3.89977C15.3867 3.89977 15.39 3.90183 15.3956 3.90664C15.4077 3.91709 15.4314 3.94065 15.4691 3.99118C15.5525 4.10284 15.6483 4.26694 15.8114 4.55002L16.2227 5.26386C16.3757 5.52941 16.4634 5.68338 16.5152 5.80313C16.5386 5.85718 16.547 5.88752 16.5501 5.90256C16.5515 5.90952 16.5518 5.9137 16.5518 5.9137L16.5518 5.91493L16.5515 5.91612C16.5515 5.91612 16.5504 5.92012 16.5476 5.92661C16.5415 5.94064 16.527 5.96853 16.4929 6.01648C16.4173 6.12275 16.2996 6.25504 16.0948 6.48286L16.0937 6.48408L15.2217 7.45893L15.2099 7.47394C14.8978 7.86894 14.7162 8.47594 14.7162 9.00703C14.7162 9.53835 14.8978 10.1452 15.2098 10.5403L15.2217 10.5553L16.0948 11.5314C16.2996 11.7592 16.4173 11.8915 16.4929 11.9978C16.527 12.0457 16.5415 12.0736 16.5476 12.0876C16.5504 12.0941 16.5515 12.0981 16.5515 12.0981L16.5518 12.0993L16.5518 12.1006C16.5518 12.1006 16.5515 12.1047 16.5501 12.1117C16.547 12.1267 16.5386 12.1571 16.5152 12.2111C16.4634 12.3309 16.3757 12.4849 16.2227 12.7504L15.8114 13.4642C15.6483 13.7473 15.5525 13.9114 15.4691 14.0231C15.4314 14.0736 15.4077 14.0972 15.3956 14.1076C15.39 14.1124 15.3867 14.1145 15.3867 14.1145L15.3857 14.1149C15.3857 14.1149 15.382 14.1157 15.3748 14.1161C15.359 14.1171 15.3257 14.1168 15.2636 14.1069C15.1263 14.0851 14.9437 14.0343 14.6297 13.9453L13.5973 13.6544L13.5827 13.6511C13.0566 13.5297 12.5046 13.5986 12.0243 13.8454L12.0108 13.8524L11.7044 14.0292L11.6922 14.037C11.2806 14.3007 10.9642 14.6893 10.7891 15.1458L10.7843 15.1584L10.5017 16.0024L10.5013 16.0036C10.4053 16.2922 10.3489 16.4587 10.2944 16.5761C10.2698 16.6291 10.2529 16.6553 10.2438 16.6674C10.2396 16.6731 10.2368 16.6759 10.2368 16.6759L10.2354 16.6769C10.2354 16.6769 10.2343 16.6775 10.232 16.6784C10.2303 16.6791 10.2281 16.6799 10.2254 16.6808C10.2112 16.6855 10.1812 16.6933 10.1234 16.6999C9.99524 16.7146 9.82002 16.7155 9.51628 16.7155H8.5873C8.28356 16.7155 8.10834 16.7146 7.98014 16.6999C7.92234 16.6933 7.89238 16.6855 7.87819 16.6808C7.87164 16.6787 7.86746 16.6765 7.86746 16.6765L7.86677 16.6759C7.86677 16.6759 7.86395 16.6731 7.85976 16.6674C7.85072 16.6553 7.83382 16.6291 7.80922 16.5761C7.7547 16.4587 7.69833 16.2922 7.6023 16.0036L7.31932 15.1584L7.31449 15.1458C7.1394 14.6893 6.82302 14.3007 6.41141 14.037L6.39922 14.0292L6.0928 13.8524L6.07926 13.8454C5.599 13.5986 5.047 13.5297 4.52085 13.6511L4.50626 13.6544L3.47386 13.9453C3.15991 14.0343 2.97726 14.0851 2.83995 14.1069C2.77785 14.1168 2.74462 14.1171 2.72881 14.1161C2.72154 14.1157 2.71787 14.1149 2.71787 14.1149L2.71686 14.1145C2.71686 14.1145 2.71358 14.1124 2.708 14.1076C2.69588 14.0972 2.67218 14.0736 2.63444 14.0231C2.55104 13.9114 2.45528 13.7473 2.29217 13.4642L1.88086 12.7504C1.72784 12.4849 1.64022 12.3309 1.58836 12.2111C1.56496 12.1571 1.55657 12.1267 1.55349 12.1117C1.55206 12.1047 1.55179 12.1006 1.55179 12.1006L1.55182 12.0993L1.55204 12.0981C1.55204 12.0981 1.55317 12.0941 1.556 12.0876C1.56212 12.0736 1.57661 12.0457 1.61071 11.9978C1.68629 11.8915 1.80396 11.7592 2.00882 11.5314L2.00991 11.5302L2.88189 10.5553L2.89375 10.5403C3.20581 10.1452 3.38736 9.53835 3.38736 9.00703C3.38736 8.47594 3.20574 7.86894 2.89372 7.47394L2.88187 7.45893L2.00991 6.48408L2.00881 6.48286C1.80396 6.25504 1.68629 6.12275 1.61071 6.01648C1.57661 5.96853 1.56212 5.94064 1.556 5.92661C1.55316 5.92012 1.55204 5.91612 1.55204 5.91612L1.55181 5.91493L1.55179 5.9137C1.55179 5.9137 1.55206 5.90952 1.55349 5.90256C1.55657 5.88752 1.56496 5.85718 1.58836 5.80313C1.64021 5.68338 1.72784 5.52941 1.88086 5.26386L2.29218 4.55002C2.4553 4.26694 2.55105 4.10284 2.63444 3.99118C2.67218 3.94065 2.69588 3.91709 2.708 3.90664C2.71357 3.90183 2.71686 3.89977 2.71686 3.89977L2.71787 3.89935C2.71787 3.89935 2.72155 3.89855 2.72881 3.89811C2.74462 3.89715 2.77785 3.89748 2.83995 3.90734C2.97726 3.92914 3.15991 3.9799 3.47385 4.06898L4.50631 4.35979L4.5209 4.36315C5.04695 4.48447 5.59884 4.41563 6.07905 4.1689L6.09259 4.16194L6.39905 3.98512L6.41125 3.97731C6.82295 3.71363 7.1394 3.32499 7.31451 2.86843L7.31934 2.85584L7.6023 2.01075C7.69833 1.7221 7.7547 1.55564 7.80922 1.43822C7.83382 1.38524 7.85072 1.35904 7.85976 1.34689C7.86395 1.34127 7.86677 1.33841 7.86677 1.33841Z" fill="#F9FAFB"/>
</svg>
