<svg width="17" height="16" viewBox="0 0 17 16" fill="none" xmlns="http://www.w3.org/2000/svg">
<path d="M2.87376 3.79047C2.9607 3.69264 3.07103 3.53905 3.17255 3.39767L3.19628 3.36462C3.24089 3.30247 3.28671 3.23864 3.33335 3.17459V6C3.33335 6.27614 3.55721 6.5 3.83335 6.5C4.10949 6.5 4.33335 6.27614 4.33335 6V3.17459C4.38 3.23865 4.4258 3.30246 4.47042 3.36462L4.49415 3.39767C4.59567 3.53905 4.706 3.69264 4.79294 3.79047C4.97637 3.99688 5.29241 4.01551 5.49882 3.83208C5.70523 3.64865 5.72386 3.33261 5.54043 3.1262C5.49629 3.07653 5.4211 2.97409 5.3064 2.81437L5.28122 2.77929C5.17996 2.6382 5.06035 2.47153 4.93702 2.31233C4.80521 2.14219 4.65517 1.96211 4.50318 1.82053C4.42714 1.7497 4.33823 1.67673 4.23969 1.61905C4.146 1.56421 4.00457 1.5 3.83335 1.5C3.66213 1.5 3.5207 1.56421 3.42701 1.61905C3.32847 1.67673 3.23956 1.7497 3.16352 1.82053C3.01153 1.96211 2.86149 2.14219 2.72968 2.31233C2.60635 2.47153 2.48673 2.6382 2.38547 2.7793L2.3603 2.81437C2.2456 2.97409 2.17041 3.07653 2.12627 3.1262C1.94284 3.33261 1.96147 3.64865 2.16788 3.83208C2.37429 4.01551 2.69033 3.99688 2.87376 3.79047Z" fill="#161616"/>
<path d="M7.83334 3.5C7.5572 3.5 7.33334 3.72386 7.33334 4C7.33334 4.27614 7.5572 4.5 7.83334 4.5H14.5C14.7762 4.5 15 4.27614 15 4C15 3.72386 14.7762 3.5 14.5 3.5H7.83334Z" fill="#161616"/>
<path d="M7.83334 6.16667C7.5572 6.16667 7.33334 6.39052 7.33334 6.66667C7.33334 6.94281 7.55719 7.16667 7.83334 7.16667L12.5 7.1667C12.7761 7.16671 13 6.94285 13 6.66671C13 6.39056 12.7762 6.16671 12.5 6.1667L7.83334 6.16667Z" fill="#161616"/>
<path d="M7.83334 8.83333C7.5572 8.83333 7.33334 9.05719 7.33334 9.33333C7.33334 9.60948 7.5572 9.83333 7.83334 9.83333H11.1667C11.4428 9.83333 11.6667 9.60948 11.6667 9.33333C11.6667 9.05719 11.4428 8.83333 11.1667 8.83333H7.83334Z" fill="#161616"/>
<path d="M7.33334 12C7.33334 11.7239 7.5572 11.5 7.83334 11.5H9.83334C10.1095 11.5 10.3333 11.7239 10.3333 12C10.3333 12.2761 10.1095 12.5 9.83334 12.5H7.83334C7.5572 12.5 7.33334 12.2761 7.33334 12Z" fill="#161616"/>
<path d="M4.49414 12.6023C4.59566 12.461 4.70599 12.3074 4.79293 12.2095C4.97636 12.0031 5.29239 11.9845 5.49881 12.1679C5.70522 12.3514 5.72385 12.6674 5.54042 12.8738C5.49628 12.9235 5.42109 13.0259 5.30639 13.1856L5.28121 13.2207C5.17996 13.3618 5.06034 13.5285 4.93701 13.6877C4.8052 13.8578 4.65516 14.0379 4.50317 14.1795C4.42713 14.2503 4.33822 14.3233 4.23967 14.381C4.14599 14.4358 4.00456 14.5 3.83334 14.5C3.66211 14.5 3.52069 14.4358 3.427 14.381C3.32846 14.3233 3.23955 14.2503 3.16351 14.1795C3.01152 14.0379 2.86148 13.8578 2.72967 13.6877C2.60634 13.5285 2.48673 13.3618 2.38547 13.2207L2.36029 13.1856C2.24559 13.0259 2.1704 12.9235 2.12626 12.8738C1.94283 12.6674 1.96146 12.3514 2.16787 12.1679C2.37428 11.9845 2.69032 12.0031 2.87375 12.2095C2.96069 12.3074 3.07102 12.461 3.17254 12.6023L3.19627 12.6354C3.24086 12.6975 3.28671 12.7614 3.33334 12.8254L3.33334 10C3.33334 9.72386 3.5572 9.5 3.83334 9.5C4.10948 9.5 4.33334 9.72386 4.33334 10L4.33334 12.8254C4.37991 12.7615 4.42564 12.6978 4.47018 12.6357L4.49414 12.6023Z" fill="#161616"/>
</svg>
