<svg width="42" height="43" viewBox="0 0 42 43" fill="none" xmlns="http://www.w3.org/2000/svg">
<path fill-rule="evenodd" clip-rule="evenodd" d="M38.1875 4.8125H22.5625V1.6875C22.5625 0.824555 21.8629 0.125 21 0.125C20.1371 0.125 19.4375 0.824555 19.4375 1.6875V4.8125H3.8125C2.08661 4.8125 0.6875 6.21161 0.6875 7.9375V31.375C0.6875 33.1009 2.08661 34.5 3.8125 34.5H11.5L7.2793 39.7734C6.73996 40.4476 6.84926 41.4314 7.52344 41.9707C8.19761 42.51 9.18136 42.4007 9.7207 41.7266L15.5 34.5H26.5L32.2793 41.7266C32.8186 42.4007 33.8024 42.51 34.4766 41.9707C35.1507 41.4314 35.26 40.4476 34.7207 39.7734L30.5 34.5H38.1875C39.9134 34.5 41.3125 33.1009 41.3125 31.375V7.9375C41.3125 6.21161 39.9134 4.8125 38.1875 4.8125ZM38.1875 31.375H3.8125V7.9375H38.1875V31.375ZM16.3125 20.4375V25.125C16.3125 25.9879 15.6129 26.6875 14.75 26.6875C13.8871 26.6875 13.1875 25.9879 13.1875 25.125V20.4375C13.1875 19.5746 13.8871 18.875 14.75 18.875C15.6129 18.875 16.3125 19.5746 16.3125 20.4375ZM22.5625 17.3125V25.125C22.5625 25.9879 21.8629 26.6875 21 26.6875C20.1371 26.6875 19.4375 25.9879 19.4375 25.125V17.3125C19.4375 16.4496 20.1371 15.75 21 15.75C21.8629 15.75 22.5625 16.4496 22.5625 17.3125ZM28.8125 14.1875V25.125C28.8125 25.9879 28.1129 26.6875 27.25 26.6875C26.3871 26.6875 25.6875 25.9879 25.6875 25.125V14.1875C25.6875 13.3246 26.3871 12.625 27.25 12.625C28.1129 12.625 28.8125 13.3246 28.8125 14.1875Z" fill="#F39A15"/>
</svg>
