<svg width="24" height="24" viewBox="0 0 24 24" fill="none" xmlns="http://www.w3.org/2000/svg">
<path d="M10.7476 20.7955C9.13899 20.7955 8.00786 20.7942 7.13841 20.7033C6.28449 20.6139 5.80057 20.4472 5.44274 20.1941C5.20128 20.0234 4.98891 19.8223 4.81111 19.5979C4.55555 19.2754 4.38611 18.8427 4.29387 18.0559C4.19894 17.2461 4.19737 16.1888 4.19737 14.6653L4.19734 11.7652C4.19732 11.4982 4.1975 10.8596 4.47811 10.3875C4.65105 10.0965 4.87246 9.85337 5.09991 9.72955C5.46642 9.53003 5.88662 9.41667 6.33328 9.41667C6.48042 9.41667 6.70441 9.42622 6.88201 9.43446C7.03693 9.44174 7.20551 9.44966 7.37365 9.45315C7.75374 9.46105 8.19728 9.44904 8.62543 9.33432C9.4594 9.11086 10.1108 8.45945 10.3343 7.62548C10.449 7.19733 10.461 6.75379 10.4531 6.3737C10.4496 6.2057 10.4417 6.03703 10.4344 5.88222C10.4338 5.86862 10.4331 5.85477 10.4325 5.84103C10.4248 5.67524 10.4166 5.50067 10.4166 5.3648C10.4166 4.89711 10.5409 4.45845 10.7582 4.08004C10.8849 3.85945 11.1057 3.65756 11.4104 3.48025C11.8726 3.21134 12.426 3.20885 12.7641 3.20732C13.1023 3.2058 13.4591 3.20463 13.7572 3.20463C15.5913 3.20463 16.2584 3.21858 16.7618 3.39593C17.6344 3.70339 18.3001 4.34503 18.6102 5.1304C18.6879 5.32704 18.7427 5.58546 18.7721 6.03341C18.8021 6.49008 18.8026 7.07303 18.8026 7.91329V10.0455C18.8026 10.5852 19.2386 11.0228 19.7763 11.0228C20.3141 11.0228 20.75 10.5852 20.75 10.0455V7.88006C20.75 7.08091 20.75 6.43335 20.7153 5.90477C20.6795 5.36014 20.6039 4.87447 20.4206 4.41031C19.8918 3.071 18.7834 2.03673 17.4068 1.55172C16.548 1.24914 15.5156 1.2495 13.9606 1.25004L13.5209 1.25007C10.6813 1.24971 8.99465 1.2495 7.61221 1.73658C5.39221 2.51875 3.61848 4.1815 2.77509 6.31755C2.49398 7.02952 2.36944 7.79422 2.30919 8.71107C2.25 9.61179 2.25 10.7244 2.25 12.1427V14.7262C2.24998 16.1743 2.24996 17.3469 2.35985 18.2843C2.47396 19.2577 2.71721 20.0956 3.28704 20.8146C3.58222 21.1871 3.93077 21.5159 4.32113 21.7919C5.0659 22.3186 5.92712 22.5417 6.93654 22.6473C7.91879 22.75 9.15159 22.75 10.6927 22.75H14.9079C15.4456 22.75 15.8816 22.3125 15.8816 21.7727C15.8816 21.233 15.4456 20.7955 14.9079 20.7955H10.7476Z" fill="#FF87AF"/>
<path d="M8.61935 12.577C8.3857 12.235 7.91902 12.1471 7.577 12.3808C7.23498 12.6144 7.14713 13.0811 7.38079 13.4231L8.79967 15.5001L7.38079 17.577C7.14713 17.919 7.23498 18.3857 7.577 18.6194C7.91902 18.853 8.3857 18.7652 8.61935 18.4231L9.70798 16.8296L10.7966 18.4231C11.0303 18.7652 11.4969 18.853 11.839 18.6194C12.181 18.3857 12.2688 17.919 12.0352 17.577L10.6163 15.5001L12.0352 13.4231C12.2688 13.0811 12.181 12.6144 11.839 12.3808C11.4969 12.1471 11.0303 12.235 10.7966 12.577L9.70798 14.1705L8.61935 12.577Z" fill="#FF87AF"/>
<path d="M14.6926 12.25C14.5209 12.25 14.3558 12.25 14.2157 12.2598C14.0629 12.2704 13.8851 12.2953 13.7021 12.3729C13.2082 12.5824 12.9474 12.9617 12.8327 13.3537C12.7409 13.6674 12.7418 14.0025 12.7423 14.2086L12.7423 14.25L12.7423 14.2914C12.7418 14.4975 12.741 14.8326 12.8327 15.1463C12.9474 15.5383 13.2082 15.9176 13.7021 16.1271C13.8851 16.2047 14.0629 16.2296 14.2157 16.2403C14.3558 16.25 14.5209 16.25 14.6926 16.25L14.7134 16.25C14.9135 16.25 15.0252 16.2504 15.1065 16.2561C15.1265 16.2575 15.1405 16.259 15.1496 16.2602C15.151 16.264 15.1526 16.2687 15.1543 16.2747C15.164 16.3078 15.1736 16.3612 15.179 16.4469C15.1844 16.5326 15.1844 16.6232 15.1844 16.7419V16.7581C15.1844 16.8768 15.1844 16.9674 15.179 17.0531C15.1736 17.1388 15.164 17.1922 15.1543 17.2253L15.1518 17.2336L15.1496 17.2398C15.1405 17.241 15.1265 17.2425 15.1065 17.2439C15.0252 17.2496 14.9135 17.25 14.7134 17.25H13.6796C13.2654 17.25 12.9296 17.5858 12.9296 18C12.9296 18.4142 13.2654 18.75 13.6796 18.75L14.7341 18.75C14.9058 18.75 15.071 18.75 15.211 18.7402C15.3638 18.7296 15.5416 18.7047 15.7247 18.6271C16.2186 18.4176 16.4794 18.0383 16.594 17.6463C16.6858 17.3326 16.685 16.9975 16.6845 16.7914L16.6844 16.75L16.6845 16.7086C16.685 16.5025 16.6858 16.1674 16.594 15.8537C16.4794 15.4617 16.2186 15.0824 15.7247 14.8729C15.5416 14.7953 15.3638 14.7704 15.211 14.7598C15.0709 14.75 14.9058 14.75 14.7341 14.75L14.7134 14.75C14.5132 14.75 14.4016 14.7496 14.3202 14.7439C14.3003 14.7425 14.2863 14.741 14.2771 14.7398C14.2758 14.7361 14.2741 14.7313 14.2724 14.7253C14.2627 14.6922 14.2531 14.6388 14.2477 14.5531C14.2423 14.4674 14.2423 14.3768 14.2423 14.2581V14.2419C14.2423 14.1232 14.2423 14.0326 14.2477 13.9469C14.2531 13.8612 14.2627 13.8078 14.2724 13.7747C14.2741 13.7687 14.2758 13.764 14.2771 13.7602C14.2863 13.759 14.3003 13.7575 14.3202 13.7561C14.4016 13.7504 14.5132 13.75 14.7134 13.75H15.6625C16.0767 13.75 16.4125 13.4142 16.4125 13C16.4125 12.5858 16.0767 12.25 15.6625 12.25L14.6926 12.25Z" fill="#FF87AF"/>
<path d="M18.4375 12.25C18.8517 12.25 19.1875 12.5858 19.1875 13V16.3333C19.1875 16.7479 19.1892 16.9815 19.2118 17.1454C19.2157 17.1739 19.2197 17.1955 19.2232 17.2115C19.2422 17.2159 19.269 17.221 19.306 17.2259C19.4784 17.2485 19.7222 17.25 20.1454 17.25H20.9994C21.4136 17.25 21.7494 17.5858 21.7494 18C21.7494 18.4142 21.4136 18.75 20.9994 18.75L20.1034 18.75C19.7372 18.7501 19.3928 18.7501 19.1108 18.7131C18.7984 18.6721 18.4521 18.574 18.1638 18.2927C17.873 18.0089 17.769 17.6636 17.7258 17.3501C17.6874 17.0713 17.6874 16.7319 17.6875 16.3763L17.6875 13C17.6875 12.5858 18.0233 12.25 18.4375 12.25Z" fill="#FF87AF"/>
</svg>
